<svg xmlns="http://www.w3.org/2000/svg" version="1.1" xmlns:xlink="http://www.w3.org/1999/xlink" xmlns:svgjs="http://svgjs.dev/svgjs" viewBox="0 0 1422 800"><circle r="12" cx="307" cy="321" fill="hsl(124, 75%, 70%)" opacity="0.61"></circle><circle r="20" cx="1244" cy="510" fill="hsl(280, 75%, 70%)" opacity="0.69"></circle><circle r="18.5" cx="1198" cy="271" fill="hsl(264, 75%, 70%)" opacity="0.92"></circle><circle r="10" cx="390" cy="530" fill="hsl(123, 75%, 70%)" opacity="0.16"></circle><circle r="13" cx="908" cy="606" fill="hsl(116, 75%, 70%)" opacity="0.57"></circle><circle r="9.5" cx="341" cy="403" fill="hsl(127, 75%, 70%)" opacity="0.65"></circle><circle r="7" cx="1239" cy="61" fill="hsl(267, 75%, 70%)" opacity="0.62"></circle><circle r="8.5" cx="903" cy="779" fill="hsl(116, 75%, 70%)" opacity="0.75"></circle><circle r="16.5" cx="1140" cy="542" fill="hsl(250, 75%, 70%)" opacity="0.91"></circle><circle r="20" cx="1386" cy="770" fill="hsl(288, 75%, 70%)" opacity="0.41"></circle><circle r="8.5" cx="440" cy="274" fill="hsl(112, 75%, 70%)" opacity="1.00"></circle><circle r="21.5" cx="1090" cy="54" fill="hsl(236, 75%, 70%)" opacity="0.37"></circle><circle r="11.5" cx="189" cy="725" fill="hsl(99, 75%, 70%)" opacity="0.18"></circle><circle r="15.5" cx="1398" cy="675" fill="hsl(288, 75%, 70%)" opacity="0.45"></circle><circle r="10" cx="22" cy="555" fill="hsl(72, 75%, 70%)" opacity="0.41"></circle><circle r="11.5" cx="174" cy="612" fill="hsl(93, 75%, 70%)" opacity="0.78"></circle><circle r="6.5" cx="100" cy="297" fill="hsl(79, 75%, 70%)" opacity="0.88"></circle><circle r="20.5" cx="1224" cy="213" fill="hsl(275, 75%, 70%)" opacity="0.16"></circle><circle r="17.5" cx="1277" cy="122" fill="hsl(287, 75%, 70%)" opacity="0.80"></circle><circle r="9.5" cx="378" cy="578" fill="hsl(126, 75%, 70%)" opacity="0.46"></circle><circle r="16" cx="1087" cy="504" fill="hsl(224, 75%, 70%)" opacity="0.82"></circle><circle r="10" cx="210" cy="207" fill="hsl(104, 75%, 70%)" opacity="0.47"></circle><circle r="11" cx="86" cy="204" fill="hsl(76, 75%, 70%)" opacity="0.63"></circle><circle r="9.5" cx="528" cy="635" fill="hsl(74, 75%, 70%)" opacity="0.18"></circle><circle r="8.5" cx="101" cy="343" fill="hsl(79, 75%, 70%)" opacity="0.72"></circle><circle r="8.5" cx="389" cy="664" fill="hsl(123, 75%, 70%)" opacity="0.71"></circle><circle r="11" cx="938" cy="332" fill="hsl(146, 75%, 70%)" opacity="0.22"></circle><circle r="11.5" cx="439" cy="463" fill="hsl(112, 75%, 70%)" opacity="0.82"></circle><circle r="6.5" cx="586" cy="761" fill="hsl(44, 75%, 70%)" opacity="0.31"></circle><circle r="6" cx="141" cy="328" fill="hsl(88, 75%, 70%)" opacity="0.20"></circle><circle r="10" cx="909" cy="280" fill="hsl(116, 75%, 70%)" opacity="0.42"></circle><circle r="8" cx="309" cy="751" fill="hsl(124, 75%, 70%)" opacity="0.62"></circle><circle r="15.5" cx="1142" cy="220" fill="hsl(250, 75%, 70%)" opacity="1.00"></circle><circle r="11" cx="468" cy="677" fill="hsl(94, 75%, 70%)" opacity="0.76"></circle><circle r="19" cx="1026" cy="615" fill="hsl(202, 75%, 70%)" opacity="0.43"></circle><circle r="8" cx="702" cy="457" fill="hsl(25, 75%, 70%)" opacity="0.99"></circle><circle r="4.5" cx="749" cy="140" fill="hsl(34, 75%, 70%)" opacity="0.92"></circle><circle r="10" cx="255" cy="733" fill="hsl(116, 75%, 70%)" opacity="0.99"></circle><circle r="9.5" cx="431" cy="360" fill="hsl(112, 75%, 70%)" opacity="0.63"></circle><circle r="8.5" cx="224" cy="295" fill="hsl(110, 75%, 70%)" opacity="0.77"></circle><circle r="10" cx="937" cy="445" fill="hsl(146, 75%, 70%)" opacity="0.22"></circle><circle r="6.5" cx="564" cy="72" fill="hsl(38, 75%, 70%)" opacity="0.69"></circle><circle r="7" cx="585" cy="258" fill="hsl(44, 75%, 70%)" opacity="0.29"></circle><circle r="11" cx="1032" cy="316" fill="hsl(202, 75%, 70%)" opacity="0.23"></circle><circle r="6" cx="700" cy="617" fill="hsl(25, 75%, 70%)" opacity="0.89"></circle><circle r="11" cx="957" cy="209" fill="hsl(161, 75%, 70%)" opacity="0.40"></circle><circle r="4" cx="732" cy="596" fill="hsl(28, 75%, 70%)" opacity="0.60"></circle><circle r="10.5" cx="809" cy="109" fill="hsl(65, 75%, 70%)" opacity="0.52"></circle><circle r="10" cx="482" cy="434" fill="hsl(94, 75%, 70%)" opacity="0.56"></circle><circle r="10.5" cx="26" cy="461" fill="hsl(72, 75%, 70%)" opacity="0.73"></circle><circle r="21" cx="362" cy="131" fill="hsl(128, 75%, 70%)" opacity="0.35"></circle><circle r="5.5" cx="899" cy="708" fill="hsl(116, 75%, 70%)" opacity="0.78"></circle><circle r="10.5" cx="130" cy="123" fill="hsl(108, 75%, 70%)" opacity="0.59"></circle><circle r="14.5" cx="311" cy="629" fill="hsl(126, 75%, 70%)" opacity="0.69"></circle><circle r="7.5" cx="629" cy="270" fill="hsl(31, 75%, 70%)" opacity="0.22"></circle><circle r="19.5" cx="1386" cy="491" fill="hsl(288, 75%, 70%)" opacity="0.52"></circle><circle r="15.5" cx="37" cy="704" fill="hsl(72, 75%, 70%)" opacity="0.40"></circle><circle r="7.5" cx="188" cy="359" fill="hsl(99, 75%, 70%)" opacity="0.29"></circle><circle r="12" cx="465" cy="518" fill="hsl(104, 75%, 70%)" opacity="0.76"></circle><circle r="6.5" cx="426" cy="784" fill="hsl(112, 75%, 70%)" opacity="0.65"></circle><circle r="6.5" cx="94" cy="262" fill="hsl(79, 75%, 70%)" opacity="0.83"></circle><circle r="13" cx="57" cy="608" fill="hsl(74, 75%, 70%)" opacity="0.93"></circle><circle r="6" cx="640" cy="780" fill="hsl(31, 75%, 70%)" opacity="0.94"></circle><circle r="12" cx="1220" cy="20" fill="hsl(252, 75%, 70%)" opacity="0.89"></circle><circle r="17.5" cx="1146" cy="310" fill="hsl(250, 75%, 70%)" opacity="0.36"></circle><circle r="12.5" cx="1289" cy="662" fill="hsl(286, 75%, 70%)" opacity="0.21"></circle><circle r="3.5" cx="771" cy="788" fill="hsl(40, 75%, 70%)" opacity="0.94"></circle><circle r="8.5" cx="943" cy="248" fill="hsl(146, 75%, 70%)" opacity="0.79"></circle><circle r="11" cx="899" cy="476" fill="hsl(116, 75%, 70%)" opacity="0.64"></circle><circle r="15" cx="1302" cy="618" fill="hsl(286, 75%, 70%)" opacity="0.76"></circle><circle r="7.5" cx="583" cy="116" fill="hsl(37, 75%, 70%)" opacity="0.59"></circle><circle r="15.5" cx="1306" cy="26" fill="hsl(257, 75%, 70%)" opacity="0.16"></circle><circle r="8" cx="750" cy="93" fill="hsl(35, 75%, 70%)" opacity="0.92"></circle><circle r="17" cx="1390" cy="374" fill="hsl(288, 75%, 70%)" opacity="0.67"></circle><circle r="7.5" cx="732" cy="531" fill="hsl(28, 75%, 70%)" opacity="0.25"></circle><circle r="11" cx="201" cy="477" fill="hsl(104, 75%, 70%)" opacity="0.87"></circle><circle r="20.5" cx="1084" cy="581" fill="hsl(224, 75%, 70%)" opacity="0.41"></circle><circle r="8" cx="529" cy="41" fill="hsl(50, 75%, 70%)" opacity="0.17"></circle><circle r="18.5" cx="1211" cy="641" fill="hsl(270, 75%, 70%)" opacity="0.91"></circle><circle r="5.5" cx="714" cy="746" fill="hsl(28, 75%, 70%)" opacity="0.16"></circle><circle r="9" cx="567" cy="311" fill="hsl(53, 75%, 70%)" opacity="0.83"></circle><circle r="19" cx="1329" cy="565" fill="hsl(288, 75%, 70%)" opacity="0.58"></circle><circle r="6.5" cx="765" cy="173" fill="hsl(41, 75%, 70%)" opacity="0.74"></circle><circle r="10" cx="205" cy="401" fill="hsl(104, 75%, 70%)" opacity="0.23"></circle><circle r="6.5" cx="818" cy="528" fill="hsl(60, 75%, 70%)" opacity="0.26"></circle><circle r="16" cx="384" cy="38" fill="hsl(123, 75%, 70%)" opacity="0.88"></circle><circle r="14.5" cx="1397" cy="547" fill="hsl(288, 75%, 70%)" opacity="0.77"></circle><circle r="6.5" cx="812" cy="580" fill="hsl(60, 75%, 70%)" opacity="0.93"></circle><circle r="8.5" cx="549" cy="200" fill="hsl(63, 75%, 70%)" opacity="0.33"></circle><circle r="10.5" cx="965" cy="292" fill="hsl(161, 75%, 70%)" opacity="0.53"></circle><circle r="6" cx="303" cy="786" fill="hsl(124, 75%, 70%)" opacity="0.40"></circle><circle r="10" cx="131" cy="20" fill="hsl(180, 75%, 70%)" opacity="0.18"></circle><circle r="4.5" cx="671" cy="167" fill="hsl(24, 75%, 70%)" opacity="0.35"></circle><circle r="11" cx="1030" cy="362" fill="hsl(202, 75%, 70%)" opacity="0.73"></circle><circle r="9.5" cx="512" cy="99" fill="hsl(61, 75%, 70%)" opacity="0.57"></circle><circle r="7" cx="778" cy="545" fill="hsl(49, 75%, 70%)" opacity="0.22"></circle><circle r="21.5" cx="1155" cy="47" fill="hsl(257, 75%, 70%)" opacity="0.34"></circle><circle r="15" cx="1170" cy="502" fill="hsl(258, 75%, 70%)" opacity="0.93"></circle><circle r="9.5" cx="844" cy="373" fill="hsl(72, 75%, 70%)" opacity="0.87"></circle><circle r="11.5" cx="853" cy="265" fill="hsl(86, 75%, 70%)" opacity="0.83"></circle><circle r="13.5" cx="263" cy="258" fill="hsl(116, 75%, 70%)" opacity="0.88"></circle><circle r="11.5" cx="167" cy="542" fill="hsl(93, 75%, 70%)" opacity="0.18"></circle><circle r="8.5" cx="1180" cy="786" fill="hsl(264, 75%, 70%)" opacity="0.85"></circle><circle r="8.5" cx="407" cy="702" fill="hsl(118, 75%, 70%)" opacity="0.90"></circle><circle r="12" cx="345" cy="721" fill="hsl(127, 75%, 70%)" opacity="0.12"></circle><circle r="12.5" cx="1270" cy="184" fill="hsl(284, 75%, 70%)" opacity="0.87"></circle><circle r="11" cx="73" cy="121" fill="hsl(103, 75%, 70%)" opacity="0.86"></circle><circle r="8" cx="599" cy="605" fill="hsl(44, 75%, 70%)" opacity="0.81"></circle><circle r="16" cx="1311" cy="80" fill="hsl(277, 75%, 70%)" opacity="0.25"></circle><circle r="9" cx="22" cy="18" fill="hsl(180, 75%, 70%)" opacity="0.68"></circle><circle r="12" cx="287" cy="687" fill="hsl(120, 75%, 70%)" opacity="0.30"></circle><circle r="16.5" cx="1263" cy="580" fill="hsl(280, 75%, 70%)" opacity="0.11"></circle><circle r="23" cx="1310" cy="498" fill="hsl(286, 75%, 70%)" opacity="0.61"></circle><circle r="18.5" cx="1218" cy="709" fill="hsl(270, 75%, 70%)" opacity="0.17"></circle><circle r="15" cx="982" cy="560" fill="hsl(176, 75%, 70%)" opacity="0.86"></circle><circle r="8" cx="992" cy="489" fill="hsl(176, 75%, 70%)" opacity="0.38"></circle><circle r="9.5" cx="37" cy="327" fill="hsl(72, 75%, 70%)" opacity="0.25"></circle><circle r="9" cx="823" cy="729" fill="hsl(72, 75%, 70%)" opacity="0.49"></circle><circle r="7.5" cx="770" cy="699" fill="hsl(40, 75%, 70%)" opacity="0.75"></circle><circle r="7" cx="683" cy="105" fill="hsl(21, 75%, 70%)" opacity="0.73"></circle><circle r="9.5" cx="838" cy="621" fill="hsl(72, 75%, 70%)" opacity="0.36"></circle><circle r="8.5" cx="673" cy="510" fill="hsl(25, 75%, 70%)" opacity="0.77"></circle><circle r="12.5" cx="1341" cy="184" fill="hsl(289, 75%, 70%)" opacity="0.33"></circle><circle r="8.5" cx="772" cy="486" fill="hsl(40, 75%, 70%)" opacity="0.89"></circle><circle r="9" cx="433" cy="741" fill="hsl(112, 75%, 70%)" opacity="0.83"></circle><circle r="10.5" cx="1304" cy="226" fill="hsl(286, 75%, 70%)" opacity="0.63"></circle><circle r="8" cx="531" cy="267" fill="hsl(74, 75%, 70%)" opacity="0.94"></circle><circle r="6.5" cx="158" cy="297" fill="hsl(93, 75%, 70%)" opacity="0.74"></circle><circle r="5" cx="753" cy="636" fill="hsl(33, 75%, 70%)" opacity="0.79"></circle><circle r="7.5" cx="793" cy="654" fill="hsl(49, 75%, 70%)" opacity="0.64"></circle><circle r="6" cx="646" cy="366" fill="hsl(26, 75%, 70%)" opacity="0.98"></circle><circle r="22.5" cx="1006" cy="57" fill="hsl(193, 75%, 70%)" opacity="0.90"></circle><circle r="6" cx="189" cy="242" fill="hsl(99, 75%, 70%)" opacity="0.96"></circle><circle r="11.5" cx="216" cy="89" fill="hsl(133, 75%, 70%)" opacity="0.24"></circle><circle r="8.5" cx="930" cy="688" fill="hsl(131, 75%, 70%)" opacity="0.50"></circle><circle r="8.5" cx="540" cy="507" fill="hsl(63, 75%, 70%)" opacity="0.54"></circle><circle r="20" cx="1382" cy="601" fill="hsl(288, 75%, 70%)" opacity="0.89"></circle><circle r="11.5" cx="72" cy="514" fill="hsl(76, 75%, 70%)" opacity="0.18"></circle><circle r="10" cx="796" cy="336" fill="hsl(49, 75%, 70%)" opacity="0.95"></circle><circle r="10" cx="382" cy="444" fill="hsl(123, 75%, 70%)" opacity="0.43"></circle><circle r="7" cx="1097" cy="385" fill="hsl(234, 75%, 70%)" opacity="0.89"></circle><circle r="6" cx="593" cy="22" fill="hsl(21, 75%, 70%)" opacity="0.89"></circle><circle r="8.5" cx="464" cy="316" fill="hsl(104, 75%, 70%)" opacity="0.21"></circle><circle r="11" cx="981" cy="436" fill="hsl(176, 75%, 70%)" opacity="0.55"></circle><circle r="6.5" cx="514" cy="222" fill="hsl(74, 75%, 70%)" opacity="0.56"></circle><circle r="9.5" cx="387" cy="754" fill="hsl(123, 75%, 70%)" opacity="0.81"></circle><circle r="13.5" cx="905" cy="152" fill="hsl(118, 75%, 70%)" opacity="0.62"></circle><circle r="15.5" cx="129" cy="683" fill="hsl(83, 75%, 70%)" opacity="0.10"></circle><circle r="7.5" cx="599" cy="198" fill="hsl(44, 75%, 70%)" opacity="0.45"></circle><circle r="13" cx="218" cy="662" fill="hsl(104, 75%, 70%)" opacity="0.50"></circle><circle r="11.5" cx="1259" cy="677" fill="hsl(280, 75%, 70%)" opacity="0.14"></circle><circle r="18.5" cx="1349" cy="729" fill="hsl(289, 75%, 70%)" opacity="0.75"></circle><circle r="12" cx="1025" cy="424" fill="hsl(202, 75%, 70%)" opacity="0.53"></circle><circle r="8" cx="628" cy="68" fill="hsl(20, 75%, 70%)" opacity="0.52"></circle><circle r="5" cx="497" cy="23" fill="hsl(61, 75%, 70%)" opacity="0.55"></circle><circle r="18.5" cx="1162" cy="598" fill="hsl(258, 75%, 70%)" opacity="0.47"></circle><circle r="6" cx="741" cy="219" fill="hsl(33, 75%, 70%)" opacity="0.55"></circle><circle r="7.5" cx="752" cy="433" fill="hsl(33, 75%, 70%)" opacity="0.18"></circle><circle r="12" cx="1190" cy="464" fill="hsl(264, 75%, 70%)" opacity="0.86"></circle><circle r="6.5" cx="661" cy="227" fill="hsl(26, 75%, 70%)" opacity="0.83"></circle><circle r="9" cx="856" cy="557" fill="hsl(86, 75%, 70%)" opacity="0.43"></circle><circle r="15.5" cx="316" cy="553" fill="hsl(126, 75%, 70%)" opacity="0.44"></circle><circle r="8.5" cx="891" cy="657" fill="hsl(116, 75%, 70%)" opacity="0.65"></circle><circle r="5.5" cx="745" cy="259" fill="hsl(33, 75%, 70%)" opacity="0.21"></circle><circle r="9" cx="542" cy="582" fill="hsl(63, 75%, 70%)" opacity="0.36"></circle><circle r="14.5" cx="932" cy="64" fill="hsl(139, 75%, 70%)" opacity="0.33"></circle><circle r="8.5" cx="90" cy="449" fill="hsl(79, 75%, 70%)" opacity="0.65"></circle><circle r="10.5" cx="833" cy="184" fill="hsl(72, 75%, 70%)" opacity="0.79"></circle><circle r="17.5" cx="1392" cy="234" fill="hsl(288, 75%, 70%)" opacity="0.13"></circle><circle r="18.5" cx="1301" cy="377" fill="hsl(286, 75%, 70%)" opacity="0.27"></circle><circle r="10.5" cx="159" cy="435" fill="hsl(93, 75%, 70%)" opacity="0.19"></circle><circle r="17.5" cx="1224" cy="370" fill="hsl(275, 75%, 70%)" opacity="0.25"></circle><circle r="12" cx="1087" cy="291" fill="hsl(224, 75%, 70%)" opacity="0.19"></circle><circle r="7.5" cx="915" cy="412" fill="hsl(131, 75%, 70%)" opacity="0.19"></circle><circle r="7" cx="839" cy="780" fill="hsl(72, 75%, 70%)" opacity="0.95"></circle><circle r="7" cx="194" cy="321" fill="hsl(99, 75%, 70%)" opacity="0.35"></circle><circle r="12" cx="353" cy="291" fill="hsl(127, 75%, 70%)" opacity="0.21"></circle><circle r="12.5" cx="28" cy="171" fill="hsl(79, 75%, 70%)" opacity="0.83"></circle><circle r="5" cx="711" cy="137" fill="hsl(25, 75%, 70%)" opacity="0.85"></circle><circle r="12" cx="363" cy="358" fill="hsl(126, 75%, 70%)" opacity="0.84"></circle><circle r="12.5" cx="1032" cy="501" fill="hsl(202, 75%, 70%)" opacity="0.24"></circle><circle r="8" cx="531" cy="691" fill="hsl(74, 75%, 70%)" opacity="0.88"></circle><circle r="17" cx="1288" cy="321" fill="hsl(284, 75%, 70%)" opacity="0.20"></circle><circle r="8" cx="534" cy="152" fill="hsl(58, 75%, 70%)" opacity="0.33"></circle><circle r="4" cx="564" cy="788" fill="hsl(53, 75%, 70%)" opacity="0.94"></circle><circle r="11.5" cx="140" cy="67" fill="hsl(136, 75%, 70%)" opacity="0.32"></circle><circle r="7" cx="768" cy="594" fill="hsl(40, 75%, 70%)" opacity="0.67"></circle><circle r="9.5" cx="869" cy="319" fill="hsl(100, 75%, 70%)" opacity="0.48"></circle><circle r="9.5" cx="413" cy="403" fill="hsl(118, 75%, 70%)" opacity="0.75"></circle><circle r="6.5" cx="550" cy="464" fill="hsl(63, 75%, 70%)" opacity="0.14"></circle><circle r="5" cx="676" cy="739" fill="hsl(25, 75%, 70%)" opacity="0.75"></circle><circle r="7.5" cx="733" cy="385" fill="hsl(28, 75%, 70%)" opacity="0.62"></circle><circle r="9.5" cx="940" cy="741" fill="hsl(146, 75%, 70%)" opacity="0.68"></circle><circle r="7.5" cx="54" cy="258" fill="hsl(74, 75%, 70%)" opacity="0.13"></circle><circle r="7" cx="619" cy="722" fill="hsl(37, 75%, 70%)" opacity="0.39"></circle><circle r="4" cx="647" cy="746" fill="hsl(26, 75%, 70%)" opacity="0.74"></circle><circle r="8" cx="602" cy="656" fill="hsl(37, 75%, 70%)" opacity="0.85"></circle><circle r="6.5" cx="709" cy="701" fill="hsl(25, 75%, 70%)" opacity="0.47"></circle><circle r="12" cx="1090" cy="454" fill="hsl(234, 75%, 70%)" opacity="0.77"></circle><circle r="16.5" cx="1397" cy="431" fill="hsl(288, 75%, 70%)" opacity="0.69"></circle><circle r="17.5" cx="283" cy="167" fill="hsl(123, 75%, 70%)" opacity="0.29"></circle><circle r="17" cx="1213" cy="565" fill="hsl(270, 75%, 70%)" opacity="0.84"></circle><circle r="10" cx="1109" cy="413" fill="hsl(234, 75%, 70%)" opacity="0.94"></circle><circle r="15.5" cx="1238" cy="443" fill="hsl(275, 75%, 70%)" opacity="0.78"></circle><circle r="7" cx="799" cy="227" fill="hsl(49, 75%, 70%)" opacity="0.99"></circle><circle r="13" cx="73" cy="36" fill="hsl(163, 75%, 70%)" opacity="0.59"></circle><circle r="7.5" cx="458" cy="126" fill="hsl(97, 75%, 70%)" opacity="0.88"></circle><circle r="13.5" cx="267" cy="511" fill="hsl(120, 75%, 70%)" opacity="0.90"></circle><circle r="7" cx="550" cy="422" fill="hsl(63, 75%, 70%)" opacity="0.96"></circle><circle r="10" cx="1082" cy="333" fill="hsl(224, 75%, 70%)" opacity="0.50"></circle><circle r="9" cx="1100" cy="357" fill="hsl(234, 75%, 70%)" opacity="0.79"></circle><circle r="9" cx="842" cy="489" fill="hsl(72, 75%, 70%)" opacity="0.43"></circle><circle r="5" cx="684" cy="261" fill="hsl(25, 75%, 70%)" opacity="0.81"></circle><circle r="9" cx="143" cy="375" fill="hsl(88, 75%, 70%)" opacity="0.76"></circle><circle r="15" cx="332" cy="228" fill="hsl(126, 75%, 70%)" opacity="0.15"></circle><circle r="14" cx="1141" cy="447" fill="hsl(250, 75%, 70%)" opacity="0.40"></circle><circle r="14.5" cx="1181" cy="747" fill="hsl(264, 75%, 70%)" opacity="0.71"></circle><circle r="20" cx="1358" cy="325" fill="hsl(289, 75%, 70%)" opacity="0.63"></circle><circle r="8" cx="260" cy="780" fill="hsl(116, 75%, 70%)" opacity="0.35"></circle><circle r="5.5" cx="708" cy="571" fill="hsl(25, 75%, 70%)" opacity="0.22"></circle><circle r="8" cx="877" cy="735" fill="hsl(100, 75%, 70%)" opacity="0.41"></circle><circle r="7.5" cx="106" cy="407" fill="hsl(79, 75%, 70%)" opacity="0.82"></circle><circle r="12.5" cx="1188" cy="419" fill="hsl(264, 75%, 70%)" opacity="0.64"></circle><circle r="12" cx="1000" cy="253" fill="hsl(189, 75%, 70%)" opacity="0.30"></circle><circle r="9.5" cx="469" cy="624" fill="hsl(94, 75%, 70%)" opacity="0.72"></circle><circle r="13.5" cx="206" cy="28" fill="hsl(166, 75%, 70%)" opacity="0.67"></circle><circle r="9" cx="568" cy="367" fill="hsl(53, 75%, 70%)" opacity="0.41"></circle><circle r="15" cx="911" cy="540" fill="hsl(131, 75%, 70%)" opacity="0.31"></circle><circle r="18.5" cx="1086" cy="767" fill="hsl(224, 75%, 70%)" opacity="0.68"></circle><circle r="7" cx="18" cy="265" fill="hsl(72, 75%, 70%)" opacity="0.86"></circle><circle r="19" cx="1082" cy="134" fill="hsl(226, 75%, 70%)" opacity="0.99"></circle><circle r="8.5" cx="496" cy="567" fill="hsl(84, 75%, 70%)" opacity="0.48"></circle><circle r="10" cx="1111" cy="251" fill="hsl(242, 75%, 70%)" opacity="0.91"></circle><circle r="10.5" cx="1036" cy="211" fill="hsl(202, 75%, 70%)" opacity="0.49"></circle><circle r="7" cx="443" cy="161" fill="hsl(110, 75%, 70%)" opacity="0.97"></circle><circle r="7" cx="633" cy="128" fill="hsl(25, 75%, 70%)" opacity="0.94"></circle><circle r="22" cx="292" cy="48" fill="hsl(151, 75%, 70%)" opacity="0.13"></circle><circle r="11.5" cx="1380" cy="20" fill="hsl(226, 75%, 70%)" opacity="0.34"></circle><circle r="12.5" cx="27" cy="76" fill="hsl(129, 75%, 70%)" opacity="0.76"></circle><circle r="11.5" cx="358" cy="489" fill="hsl(126, 75%, 70%)" opacity="0.13"></circle><circle r="9.5" cx="849" cy="684" fill="hsl(86, 75%, 70%)" opacity="0.79"></circle><circle r="5.5" cx="727" cy="662" fill="hsl(28, 75%, 70%)" opacity="0.82"></circle><circle r="8.5" cx="196" cy="778" fill="hsl(99, 75%, 70%)" opacity="0.89"></circle><circle r="7" cx="353" cy="784" fill="hsl(127, 75%, 70%)" opacity="0.36"></circle><circle r="11" cx="890" cy="210" fill="hsl(116, 75%, 70%)" opacity="0.96"></circle><circle r="7" cx="719" cy="335" fill="hsl(28, 75%, 70%)" opacity="0.66"></circle><circle r="11.5" cx="439" cy="579" fill="hsl(112, 75%, 70%)" opacity="0.21"></circle><circle r="10.5" cx="135" cy="498" fill="hsl(88, 75%, 70%)" opacity="0.81"></circle><circle r="10.5" cx="152" cy="174" fill="hsl(94, 75%, 70%)" opacity="0.41"></circle><circle r="19.5" cx="1213" cy="130" fill="hsl(275, 75%, 70%)" opacity="0.48"></circle><circle r="15" cx="1265" cy="248" fill="hsl(280, 75%, 70%)" opacity="0.74"></circle><circle r="6.5" cx="164" cy="262" fill="hsl(93, 75%, 70%)" opacity="0.13"></circle><circle r="19" cx="1386" cy="75" fill="hsl(270, 75%, 70%)" opacity="0.21"></circle><circle r="8.5" cx="69" cy="376" fill="hsl(76, 75%, 70%)" opacity="0.65"></circle><circle r="9.5" cx="781" cy="28" fill="hsl(59, 75%, 70%)" opacity="0.85"></circle><circle r="8.5" cx="24" cy="391" fill="hsl(72, 75%, 70%)" opacity="0.40"></circle><circle r="12.5" cx="1266" cy="54" fill="hsl(269, 75%, 70%)" opacity="0.29"></circle><circle r="9.5" cx="954" cy="498" fill="hsl(146, 75%, 70%)" opacity="0.91"></circle><circle r="19.5" cx="1162" cy="162" fill="hsl(261, 75%, 70%)" opacity="0.62"></circle><circle r="9" cx="316" cy="440" fill="hsl(126, 75%, 70%)" opacity="0.14"></circle><circle r="7" cx="666" cy="646" fill="hsl(26, 75%, 70%)" opacity="0.16"></circle><circle r="17.5" cx="1080" cy="681" fill="hsl(224, 75%, 70%)" opacity="0.84"></circle><circle r="10.5" cx="222" cy="560" fill="hsl(110, 75%, 70%)" opacity="0.39"></circle><circle r="10.5" cx="510" cy="329" fill="hsl(84, 75%, 70%)" opacity="0.95"></circle><circle r="11.5" cx="279" cy="383" fill="hsl(120, 75%, 70%)" opacity="0.89"></circle><circle r="11" cx="988" cy="345" fill="hsl(176, 75%, 70%)" opacity="0.45"></circle><circle r="11" cx="855" cy="431" fill="hsl(86, 75%, 70%)" opacity="0.16"></circle><circle r="7.5" cx="130" cy="235" fill="hsl(83, 75%, 70%)" opacity="0.78"></circle><circle r="14.5" cx="1225" cy="317" fill="hsl(275, 75%, 70%)" opacity="0.54"></circle><circle r="14.5" cx="989" cy="752" fill="hsl(176, 75%, 70%)" opacity="0.82"></circle><circle r="7.5" cx="279" cy="441" fill="hsl(120, 75%, 70%)" opacity="0.33"></circle><circle r="6" cx="637" cy="179" fill="hsl(31, 75%, 70%)" opacity="0.44"></circle><circle r="11" cx="446" cy="74" fill="hsl(92, 75%, 70%)" opacity="0.54"></circle><circle r="12" cx="1038" cy="273" fill="hsl(202, 75%, 70%)" opacity="0.83"></circle><circle r="9" cx="653" cy="570" fill="hsl(26, 75%, 70%)" opacity="0.12"></circle><circle r="10" cx="1072" cy="238" fill="hsl(224, 75%, 70%)" opacity="0.40"></circle><circle r="13" cx="1310" cy="279" fill="hsl(286, 75%, 70%)" opacity="0.29"></circle><circle r="22.5" cx="1284" cy="765" fill="hsl(284, 75%, 70%)" opacity="0.43"></circle><circle r="6" cx="674" cy="21" fill="hsl(18, 75%, 70%)" opacity="0.61"></circle><circle r="9" cx="574" cy="705" fill="hsl(53, 75%, 70%)" opacity="0.32"></circle><circle r="4.5" cx="776" cy="760" fill="hsl(40, 75%, 70%)" opacity="0.16"></circle><circle r="9" cx="388" cy="622" fill="hsl(123, 75%, 70%)" opacity="0.79"></circle><circle r="5.5" cx="902" cy="383" fill="hsl(116, 75%, 70%)" opacity="0.70"></circle><circle r="13" cx="1208" cy="79" fill="hsl(270, 75%, 70%)" opacity="0.20"></circle><circle r="12.5" cx="1304" cy="167" fill="hsl(290, 75%, 70%)" opacity="0.54"></circle><circle r="11.5" cx="91" cy="768" fill="hsl(79, 75%, 70%)" opacity="0.63"></circle><circle r="18.5" cx="1392" cy="175" fill="hsl(291, 75%, 70%)" opacity="0.55"></circle><circle r="13" cx="397" cy="236" fill="hsl(123, 75%, 70%)" opacity="1.00"></circle><circle r="14.5" cx="967" cy="650" fill="hsl(161, 75%, 70%)" opacity="0.44"></circle><circle r="11" cx="218" cy="142" fill="hsl(115, 75%, 70%)" opacity="0.66"></circle><circle r="9.5" cx="1137" cy="367" fill="hsl(250, 75%, 70%)" opacity="0.15"></circle><circle r="5.5" cx="703" cy="294" fill="hsl(25, 75%, 70%)" opacity="0.11"></circle><circle r="9" cx="475" cy="246" fill="hsl(94, 75%, 70%)" opacity="0.29"></circle><circle r="14.5" cx="1169" cy="379" fill="hsl(258, 75%, 70%)" opacity="0.97"></circle><circle r="7" cx="892" cy="353" fill="hsl(116, 75%, 70%)" opacity="0.98"></circle><circle r="18" cx="1359" cy="126" fill="hsl(289, 75%, 70%)" opacity="0.50"></circle><circle r="7" cx="705" cy="186" fill="hsl(25, 75%, 70%)" opacity="0.68"></circle><circle r="11.5" cx="1060" cy="399" fill="hsl(214, 75%, 70%)" opacity="0.45"></circle><circle r="10.5" cx="249" cy="344" fill="hsl(116, 75%, 70%)" opacity="0.55"></circle><circle r="13" cx="864" cy="60" fill="hsl(96, 75%, 70%)" opacity="0.61"></circle><circle r="17.5" cx="985" cy="156" fill="hsl(177, 75%, 70%)" opacity="0.30"></circle><circle r="10.5" cx="961" cy="386" fill="hsl(161, 75%, 70%)" opacity="0.35"></circle><circle r="8" cx="242" cy="449" fill="hsl(110, 75%, 70%)" opacity="0.12"></circle><circle r="10.5" cx="248" cy="605" fill="hsl(116, 75%, 70%)" opacity="0.34"></circle><circle r="9.5" cx="622" cy="470" fill="hsl(31, 75%, 70%)" opacity="0.55"></circle><circle r="6.5" cx="455" cy="18" fill="hsl(84, 75%, 70%)" opacity="0.70"></circle><circle r="14" cx="1401" cy="294" fill="hsl(286, 75%, 70%)" opacity="0.95"></circle><circle r="9.5" cx="503" cy="385" fill="hsl(84, 75%, 70%)" opacity="0.99"></circle><circle r="8" cx="706" cy="57" fill="hsl(22, 75%, 70%)" opacity="0.79"></circle><circle r="14" cx="1033" cy="716" fill="hsl(202, 75%, 70%)" opacity="0.34"></circle><circle r="7.5" cx="664" cy="411" fill="hsl(26, 75%, 70%)" opacity="0.66"></circle><circle r="8" cx="490" cy="726" fill="hsl(84, 75%, 70%)" opacity="0.19"></circle><circle r="17" cx="1345" cy="434" fill="hsl(289, 75%, 70%)" opacity="0.69"></circle><circle r="19" cx="1335" cy="672" fill="hsl(289, 75%, 70%)" opacity="0.85"></circle><circle r="10.5" cx="404" cy="308" fill="hsl(118, 75%, 70%)" opacity="0.87"></circle><circle r="8.5" cx="800" cy="420" fill="hsl(60, 75%, 70%)" opacity="0.34"></circle><circle r="5" cx="706" cy="783" fill="hsl(25, 75%, 70%)" opacity="0.59"></circle><circle r="8" cx="604" cy="409" fill="hsl(37, 75%, 70%)" opacity="0.52"></circle><circle r="5" cx="753" cy="741" fill="hsl(33, 75%, 70%)" opacity="0.94"></circle><circle r="8" cx="447" cy="198" fill="hsl(104, 75%, 70%)" opacity="0.61"></circle><circle r="6" cx="655" cy="694" fill="hsl(26, 75%, 70%)" opacity="0.61"></circle><circle r="10" cx="1054" cy="174" fill="hsl(215, 75%, 70%)" opacity="0.43"></circle><circle r="10.5" cx="592" cy="540" fill="hsl(44, 75%, 70%)" opacity="0.16"></circle><circle r="13" cx="1342" cy="245" fill="hsl(289, 75%, 70%)" opacity="0.24"></circle><circle r="10.5" cx="119" cy="597" fill="hsl(83, 75%, 70%)" opacity="0.19"></circle><circle r="4" cx="805" cy="779" fill="hsl(60, 75%, 70%)" opacity="0.58"></circle><circle r="7" cx="475" cy="764" fill="hsl(94, 75%, 70%)" opacity="0.42"></circle><circle r="7" cx="783" cy="283" fill="hsl(49, 75%, 70%)" opacity="0.23"></circle><circle r="7" cx="634" cy="323" fill="hsl(31, 75%, 70%)" opacity="0.19"></circle><circle r="4.5" cx="494" cy="788" fill="hsl(84, 75%, 70%)" opacity="0.55"></circle><circle r="17.5" cx="1288" cy="431" fill="hsl(284, 75%, 70%)" opacity="0.54"></circle><circle r="23.5" cx="1142" cy="668" fill="hsl(250, 75%, 70%)" opacity="0.55"></circle><circle r="8" cx="532" cy="763" fill="hsl(74, 75%, 70%)" opacity="0.25"></circle></svg>